<svg width="510" height="510" viewBox="0 0 510 510" fill="none" xmlns="http://www.w3.org/2000/svg">
<circle cx="255" cy="255" r="255" fill="#F68A25"/>
<path d="M340.419 367.65C333.578 367.64 326.846 369.36 320.849 372.65L202.459 267.79C205.83 258.466 205.417 248.194 201.309 239.17L308.799 133.9C310.659 134.326 312.561 134.544 314.469 134.55C319.503 134.55 324.424 133.057 328.609 130.26C332.795 127.464 336.057 123.488 337.983 118.837C339.908 114.186 340.412 109.069 339.429 104.132C338.446 99.1944 336.021 94.6597 332.461 91.1009C328.901 87.542 324.365 85.1189 319.428 84.1381C314.49 83.1572 309.373 83.6626 304.723 85.5904C300.072 87.5182 296.098 90.7817 293.303 94.9683C290.508 99.1548 289.017 104.076 289.019 109.11C289.022 110.847 289.199 112.579 289.549 114.28L181.789 219.82C181.239 219.57 180.669 219.36 180.109 219.14V110.59C185.114 107.585 188.996 103.021 191.161 97.5992C193.326 92.1769 193.653 86.1946 192.094 80.5684C190.534 74.9422 187.174 69.9821 182.527 66.4479C177.88 62.9136 172.202 61 166.364 61C160.525 61 154.848 62.9136 150.201 66.4479C145.554 69.9821 142.193 74.9422 140.634 80.5684C139.074 86.1946 139.402 92.1769 141.567 97.5992C143.731 103.021 147.614 107.585 152.619 110.59V219.14C145.376 221.912 139.145 226.816 134.749 233.204C130.353 239.593 128 247.165 128 254.92C128 262.675 130.353 270.247 134.749 276.636C139.145 283.025 145.376 287.929 152.619 290.7V378.31C145.75 381.448 140.161 386.842 136.782 393.595C133.402 400.348 132.435 408.054 134.04 415.433C135.646 422.812 139.728 429.419 145.608 434.157C151.488 438.896 158.812 441.479 166.364 441.479C173.915 441.479 181.24 438.896 187.12 434.157C193 429.419 197.082 422.812 198.688 415.433C200.293 408.054 199.326 400.348 195.946 393.595C192.566 386.842 186.978 381.448 180.109 378.31V290.7C181.647 290.132 183.147 289.464 184.599 288.7L302.599 393.28C299.367 401.369 298.816 410.281 301.026 418.706C303.236 427.132 308.09 434.626 314.876 440.087C321.661 445.548 330.02 448.688 338.723 449.046C347.426 449.404 356.014 446.96 363.225 442.074C370.436 437.188 375.889 430.117 378.782 421.901C381.676 413.686 381.858 404.759 379.301 396.432C376.744 388.106 371.583 380.819 364.577 375.644C357.571 370.468 349.089 367.677 340.379 367.68" fill="#FCFCFC"/>
</svg>
